<?xml version="1.0" standalone="no"?>
<!DOCTYPE svg PUBLIC "-//W3C//DTD SVG 20010904//EN"
 "http://www.w3.org/TR/2001/REC-SVG-20010904/DTD/svg10.dtd">
<svg version="1.0" xmlns="http://www.w3.org/2000/svg"
 width="325.000000pt" height="260.000000pt" viewBox="0 0 325.000000 260.000000"
 preserveAspectRatio="xMidYMid meet">
<metadata>
Created by potrace 1.15, written by Peter Selinger 2001-2017
</metadata>
<g transform="translate(0.000000,260.000000) scale(0.100000,-0.100000)"
fill="#000000" stroke="none">
<path d="M2060 1976 c0 -10 35 -25 100 -45 55 -17 146 -45 203 -63 l102 -31
-42 -14 c-40 -14 -47 -13 -260 53 -120 37 -224 69 -230 71 -10 4 -13 -68 -13
-341 l0 -346 -36 0 c-32 0 -44 -8 -95 -62 l-58 -63 -1 63 0 62 -30 0 -30 0 0
-151 0 -150 28 3 c24 3 27 7 30 48 2 28 11 53 24 67 l21 22 41 -67 c38 -61 45
-67 79 -70 20 -2 37 -1 37 2 0 4 -25 44 -56 91 l-57 85 47 55 c49 57 59 61
113 46 l33 -9 2 193 3 193 110 -34 c61 -19 117 -37 125 -40 9 -4 -23 -18 -77
-35 l-93 -30 0 -194 0 -194 28 9 c15 5 57 18 94 30 65 21 68 21 122 4 55 -17
57 -17 131 6 l75 24 -2 345 -3 346 -215 67 c-118 37 -223 67 -232 68 -10 0
-18 -6 -18 -14z"/>
<path d="M730 1110 l0 -150 73 0 c105 0 145 14 163 55 15 38 7 77 -21 92 -15
9 -15 12 2 40 14 25 15 38 8 59 -15 41 -49 54 -142 54 l-83 0 0 -150z"/>
<path d="M1082 1246 c-80 -44 -92 -184 -23 -250 38 -36 108 -46 164 -22 97 40
101 222 6 272 -34 17 -116 18 -147 0z m118 -46 c10 -5 24 -26 30 -46 34 -101
-53 -184 -126 -121 -22 19 -26 31 -26 76 0 41 5 58 23 77 24 25 66 32 99 14z"/>
<path d="M1402 1246 c-80 -44 -92 -184 -23 -250 38 -36 108 -46 164 -22 97 40
101 222 6 272 -34 17 -116 18 -147 0z m118 -46 c10 -5 24 -26 30 -46 34 -101
-53 -184 -126 -121 -22 19 -26 31 -26 76 0 41 5 58 23 77 24 25 66 32 99 14z"/>
<path d="M980 741 l0 -151 30 0 31 0 -3 148 -3 147 -27 3 -28 3 0 -150z"/>
<path d="M1098 884 c-5 -4 -8 -72 -8 -151 l0 -143 90 0 c95 0 142 14 154 45
13 36 6 74 -18 93 -21 16 -23 21 -11 33 27 27 28 64 3 93 -21 24 -32 27 -113
32 -49 4 -93 3 -97 -2z"/>
<path d="M1390 740 l0 -150 30 0 30 0 0 61 c0 60 0 60 27 57 21 -2 38 -18 67
-60 35 -51 44 -58 73 -58 18 0 33 3 33 7 0 13 -63 104 -79 112 -14 8 -12 11
11 20 32 12 48 39 48 78 0 60 -46 81 -182 82 l-58 1 0 -150z"/>
<path d="M1721 753 c-29 -76 -56 -144 -58 -150 -4 -9 5 -13 26 -13 26 0 33 6
45 35 15 34 16 35 71 35 55 0 56 -1 71 -35 12 -29 19 -35 44 -35 17 0 30 3 30
8 -1 4 -26 70 -58 147 -54 133 -58 140 -87 143 -30 3 -30 2 -84 -135z"/>
<path d="M1990 740 l0 -150 25 0 c24 0 25 3 25 60 0 56 2 60 23 60 29 0 36 -6
81 -67 33 -46 42 -53 72 -53 l35 0 -18 31 c-10 17 -30 45 -44 62 l-27 32 31
26 c24 20 31 34 31 63 0 20 -7 43 -16 52 -19 20 -83 33 -160 34 l-58 0 0 -150z"/>
<path d="M2240 883 c0 -3 23 -41 50 -84 47 -73 50 -82 50 -143 l0 -66 30 0
c30 0 30 0 30 60 0 55 4 66 55 145 30 46 55 87 55 90 0 3 -15 5 -32 5 -30 0
-37 -6 -68 -60 l-34 -60 -33 52 c-18 29 -33 56 -33 61 0 9 -70 10 -70 0z"/>
<path d="M730 735 l0 -145 105 0 105 0 0 25 c0 24 -2 25 -75 25 l-75 0 0 120
0 120 -30 0 -30 0 0 -145z"/>
</g>
</svg>
